<svg width="83" height="200" viewBox="0 0 83 200" fill="none" xmlns="http://www.w3.org/2000/svg">
<g clip-path="url(#clip0_785_4148)">
<path d="M48.6456 76.1104C41.9728 83.9119 33.1848 72.1135 33.1848 72.1135C33.1848 72.1135 36.6982 69.5384 37.3973 68.3C37.4286 68.2463 37.46 68.1748 37.4735 68.0943C37.9799 66.5117 36.8505 61.1423 36.8505 61.1423L46.8485 59.1975C46.8485 59.1975 47.3908 62.4924 48.0316 62.9663C48.0361 62.9708 48.0406 62.9708 48.054 62.9708C48.6321 63.2122 50.828 57.0515 50.828 57.0515C50.828 57.0515 55.3139 68.3089 48.6456 76.1059V76.1104Z" fill="#FFD8B5"/>
<path d="M48.054 62.9753C46.5079 65.5371 43.0797 69.5742 37.4779 68.0988C37.9843 66.5162 36.855 61.1468 36.855 61.1468L46.853 59.202C46.853 59.202 47.3953 62.4969 48.0361 62.9708C48.0406 62.9753 48.0451 62.9753 48.0585 62.9753H48.054Z" fill="#B6A393"/>
<path d="M83 199.759L60.8171 199.687C60.8171 199.687 60.8081 198.967 60.9246 197.93C61.1128 196.307 61.6237 193.906 63.0309 192.377C63.0309 192.377 72.5045 191.148 77.7164 194.353C80.0243 195.775 81.3195 196.996 82.0544 197.908C82.9821 199.075 83 199.754 83 199.754V199.759Z" fill="#003E54"/>
<path d="M83 199.759L60.8171 199.687C60.8171 199.687 60.8081 198.967 60.9246 197.93L82.0499 197.917C82.982 199.079 83 199.759 83 199.759Z" fill="#FFDFC2"/>
<path d="M24.3609 199.691L46.5393 200.004C46.5393 200.004 46.5617 199.28 46.4587 198.247C46.3018 196.62 45.8313 194.215 44.451 192.659C44.451 192.659 34.9997 191.26 29.7341 194.385C27.4082 195.771 26.0817 196.964 25.3378 197.867C24.3922 199.016 24.3609 199.696 24.3609 199.696V199.691Z" fill="#003E54"/>
<path d="M24.3609 199.691L46.5393 200.004C46.5393 200.004 46.5617 199.28 46.4587 198.247L25.3378 197.867C24.3922 199.016 24.3609 199.696 24.3609 199.696V199.691Z" fill="#FFDFC2"/>
<path d="M71.8501 192.342L61.8476 193.562L56.1518 163.174L49.3938 131.374L49.34 131.101L45.4233 193.938L36.4022 192.516L34.3408 122.079L34.4663 112.422L62.1479 109.713L63.0531 115.949L71.8501 192.342Z" fill="#A15414"/>
<g style="mix-blend-mode:multiply" opacity="0.2">
<path d="M63.0533 115.949C57.9938 118.999 47.3415 124.01 34.332 122.074L34.4664 112.422L62.148 109.713L63.0533 115.949Z" fill="#634200"/>
</g>
<g style="mix-blend-mode:multiply" opacity="0.2">
<path d="M56.1519 163.174L49.3984 131.378C49.4029 131.172 49.4074 130.976 49.4164 130.766C51.061 129.509 52.7012 128.244 54.6417 126.876C55.3228 138.965 55.8292 151.063 56.1564 163.174H56.1519Z" fill="#634200"/>
</g>
<path d="M66.4054 13.4436C68.1352 12.4779 72.2267 9.83121 73.3829 8.89682C73.8266 8.53916 75.0948 7.29181 73.2081 7.42147C72.4732 7.47065 69.7171 8.63752 69.0808 9.00859C70.2011 8.22174 71.6979 6.94309 72.8138 6.15624C73.0782 5.96847 73.3784 5.71363 73.3426 5.39174C73.2933 4.93572 72.6704 4.83736 72.2088 4.89101C70.7658 5.0609 69.139 5.97741 67.8663 6.68826C68.7402 5.92376 70.3893 4.06392 71.0795 3.134C71.3663 2.74951 71.6352 2.21749 71.3708 1.81512C71.0122 1.27415 70.1742 1.60052 69.6365 1.97159C68.2741 2.9194 66.0469 4.85524 64.6845 5.80305C65.7332 3.93873 67.947 0.424708 67.2748 0.067046C65.9169 -0.652748 61.924 5.11902 60.4944 7.42147C59.8849 6.43343 59.2755 5.45433 58.666 4.46629C58.4061 4.04603 57.9759 3.56766 57.5232 3.75096C57.0213 3.94768 57.1154 4.68088 57.2947 5.19055C58.2492 7.81489 59.1993 10.4348 59.8625 13.3005C62.0584 13.1038 64.2991 13.2737 66.4009 13.4481L66.4054 13.4436Z" fill="#FFD8B5"/>
<path d="M8.12925 114.201C6.27843 114.903 2.26758 116.499 0.985898 117.255C0.492944 117.546 -0.941104 118.592 0.945565 118.744C1.68051 118.806 4.14977 118.48 4.82646 118.203C3.60752 118.82 2.21828 119.437 0.999342 120.049C0.708051 120.197 0.376428 120.402 0.362983 120.729C0.345058 121.194 0.950047 121.377 1.41163 121.39C2.8636 121.435 4.32006 121.194 5.6824 120.675C4.70546 121.31 3.80022 122.048 2.97564 122.87C2.63953 123.21 2.28999 123.697 2.49613 124.131C2.77398 124.721 3.65233 124.524 4.23491 124.229C5.72722 123.492 7.21056 122.758 8.70287 122.021C7.38982 123.711 5.94681 125.298 6.56076 125.749C7.79762 126.657 11.3334 123.098 13.0857 121.033C13.5428 122.097 14.0044 123.161 14.4615 124.225C14.6542 124.676 15.0127 125.213 15.4877 125.101C16.0165 124.976 16.03 124.238 15.9179 123.706C15.3622 120.975 14.802 118.238 14.569 115.31C12.3687 115.185 10.1817 114.693 8.12477 114.21L8.12925 114.201Z" fill="#FFD8B5"/>
<path d="M63.6628 111.336C64.0213 112.632 64.3081 113.209 65.0654 114.411C55.529 120.456 43.6892 120.702 32.7501 119.267C32.7277 117.858 32.8442 117 32.8173 115.587C31.9882 115.158 30.8948 114.018 31.0516 112.869C31.3295 110.835 31.7238 108.832 31.7955 104.553C31.8224 102.703 31.7955 95.9561 31.6701 93.068C24.5133 99.0812 20.2828 104.232 16.1106 115.194C15.7835 116.039 15.4653 116.915 15.1427 117.823C12.5793 116.75 9.88597 115.525 7.18817 114.313C7.28228 113.634 7.37639 112.958 7.49291 112.283C10.3386 95.2542 20.601 80.6795 34.4396 70.4012C35.049 69.9497 35.654 69.5071 36.2769 69.0734C38.0336 72.1806 42.8377 75.4085 46.1315 73.7677C49.403 72.1314 49.7704 66.8201 48.7039 61.5893C49.0848 60.7175 49.4567 59.8278 49.8197 58.9113C55.4439 44.6004 58.1103 29.0197 57.8056 14.3154C57.7832 13.1977 57.7428 12.0889 57.6846 10.9757C61.3952 11.5614 64.1288 12.3348 67.9784 14.4271C68.0456 15.7863 68.1038 17.132 68.1486 18.4553C68.8298 39.4143 66.0827 55.5761 61.0008 72.8288C62.8292 83.7644 64.0482 96.211 65.0923 107.138C65.1147 107.357 65.1327 107.585 65.1551 107.804C65.3971 110.307 64.8638 110.772 63.6583 111.336H63.6628Z" fill="#1E868D"/>
<path d="M47.4087 75.252C41.7801 78.2921 36.3845 73.1597 34.444 70.4191C35.0535 69.9675 35.6585 69.5249 36.2814 69.0913C38.0381 72.1984 42.8422 75.4263 46.136 73.7856C49.4074 72.1493 49.7749 66.838 48.7083 61.6072C49.0892 60.7354 49.4612 59.8457 49.8242 58.9292C50.8146 62.8188 53.2704 72.0822 47.4042 75.2475L47.4087 75.252Z" fill="#C5F5E9"/>
<path d="M16.1151 115.198C15.788 116.043 15.4698 116.92 15.1471 117.827C12.5838 116.754 9.89046 115.529 7.19266 114.318C7.28677 113.638 7.38088 112.963 7.49739 112.288L16.1151 115.198Z" fill="#C5F5E9"/>
<path d="M68.1576 18.4776L57.8056 14.3377C57.7832 13.22 57.7428 12.1112 57.6846 10.998C61.3952 11.5837 64.1288 12.3571 67.9783 14.4494C68.0545 15.8085 68.1128 17.1542 68.1531 18.4776H68.1576Z" fill="#C5F5E9"/>
<g style="mix-blend-mode:multiply" opacity="0.2">
<path d="M63.6628 111.336C64.0213 112.632 64.3081 113.209 65.0654 114.411C55.529 120.456 43.6892 120.702 32.7501 119.267C32.7277 117.858 32.8442 117 32.8173 115.587C31.9882 115.158 30.8948 114.018 31.0516 112.869C31.3295 110.835 31.7238 108.832 31.7955 104.553C41.7577 110.267 54.3639 111.193 65.1058 107.146C65.1282 107.366 65.1461 107.594 65.1685 107.813C65.406 110.303 64.8683 110.772 63.6672 111.336H63.6628Z" fill="#1E868D"/>
</g>
<g style="mix-blend-mode:multiply" opacity="0.2">
<path d="M32.0196 91.843C32.7725 87.7835 32.7635 83.5766 31.9927 79.5171C32.88 81.6184 33.7897 83.7599 33.9332 86.0355C34.081 88.3066 33.3326 90.77 32.0241 91.843H32.0196Z" fill="#1E868D"/>
</g>
<g style="mix-blend-mode:multiply" opacity="0.2">
<path d="M34.1572 91.0293C35.5375 87.788 36.4786 84.3634 36.9357 80.8762C37.953 84.5825 36.6534 88.8208 34.1572 91.0293Z" fill="#1E868D"/>
</g>
<g style="mix-blend-mode:multiply" opacity="0.2">
<path d="M60.0015 71.6799C59.1231 67.3566 57.5233 63.172 55.2736 59.3718C58.3389 62.64 60.118 67.0928 60.0015 71.6799Z" fill="#1E868D"/>
</g>
<g style="mix-blend-mode:multiply" opacity="0.2">
<path d="M60.6513 66.9095C60.6737 61.6564 60.3152 56.4077 59.5802 51.2082C61.8164 56.059 62.3632 61.6609 60.6513 66.9095Z" fill="#1E868D"/>
</g>
<path d="M35.3045 119.2C35.0714 117.939 35.0849 116.633 35.3493 115.377C35.6764 116.611 35.6899 117.921 35.3045 119.2Z" fill="#076E94"/>
<path d="M41.9683 119.459C41.7129 118.243 41.6546 116.978 41.7935 115.744C42.2954 117.045 42.4433 118.484 41.9683 119.459Z" fill="#076E94"/>
<path d="M50.12 118.802C49.7435 117.666 49.5957 116.455 49.6763 115.261C50.1065 116.611 50.2903 118.042 50.12 118.802Z" fill="#076E94"/>
<path d="M56.4477 117.59C56.0892 116.361 55.8562 115.1 55.7441 113.826C56.2998 114.97 56.5598 116.262 56.4477 117.59Z" fill="#076E94"/>
<path d="M61.4579 115.824C61.0277 114.693 60.7454 113.504 60.6199 112.301C61.1666 113.298 61.4714 114.429 61.4579 115.824Z" fill="#076E94"/>
<path d="M48.2871 51.1009C49.6898 50.0861 51.4823 50.1665 52.2935 51.2798C53.1046 52.393 52.6206 54.1187 51.2179 55.1336C49.8152 56.1484 48.0227 56.0679 47.2116 54.9547C46.4004 53.8415 46.8844 52.1158 48.2871 51.1009Z" fill="#FFD8B5"/>
<path d="M28.4434 55.907C26.5344 48.9371 29.5593 42.0342 35.2014 40.4918C40.8524 38.9494 46.9785 43.3531 48.8921 50.3275C50.8011 57.2974 49.2461 63.0781 43.5547 65.318C38.1098 67.4595 30.3525 62.8814 28.4389 55.907H28.4434Z" fill="#FFD8B5"/>
<path d="M30.7334 57.6014C31.2846 55.2319 31.3653 52.7596 31.0651 50.162C33.6777 50.9534 36.7116 50.1799 38.5535 48.2485C40.718 49.2411 43.362 49.1114 45.643 47.9356C47.2832 49.1919 48.5156 50.9712 49.3223 52.7953C48.8383 51.4362 48.659 49.9787 48.3184 48.5749C47.9823 47.1711 47.4401 45.7494 46.5169 44.8239C40.5835 44.4931 34.5964 45.1101 28.6227 46.6704C28.0804 49.9922 28.43 53.457 30.7334 57.6014Z" fill="#B6A393"/>
<path d="M49.4746 53.685C48.8383 50.5152 47.5521 48.6375 46.0912 46.5005C43.6175 47.8998 40.7673 47.9669 38.419 46.876C36.8461 48.7001 31.1233 49.4825 29.6489 48.5168C30.7648 53.0502 31.7149 56.1082 30.6707 60.105C28.3897 57.8741 26.0593 56.1842 25.3289 52.0979C25.0914 50.7745 25.1675 48.5839 26.9646 48.1636C26.8077 47.0951 26.754 45.9863 26.8525 44.9134C26.9691 43.7286 27.2648 42.5707 27.834 41.5245C28.9095 39.5261 31.0919 38.015 33.6329 38.3056C34.6547 37.4338 35.7526 36.6245 37.0074 36.1328C38.2622 35.641 39.6873 35.4934 40.951 35.9405C42.2148 36.3876 43.2858 37.4963 43.4023 38.7705C44.8364 38.6319 46.3242 39.2042 47.3012 40.2638C47.6507 40.6438 47.942 41.0908 48.1257 41.5871C48.4663 42.4634 48.5022 43.4872 48.0137 44.5736C49.5015 47.1622 49.7435 49.3886 49.4702 53.6805L49.4746 53.685Z" fill="#14565A"/>
<path d="M29.8865 57.5433C31.6208 57.5433 33.0234 58.6565 33.0234 60.0335C33.0234 61.4105 31.6208 62.5237 29.8865 62.5237C28.1522 62.5237 26.7495 61.4105 26.7495 60.0335C26.7495 58.6565 28.1522 57.5433 29.8865 57.5433Z" fill="#FFD8B5"/>
</g>
<defs>
<clipPath id="clip0_785_4148">
<rect width="83" height="200" fill="white"/>
</clipPath>
</defs>
</svg>
